0
SECTION
2
HEADER
9
$INSUNITS
70
4
0
ENDSEC
0
SECTION
2
TABLES
0
TABLE
2
LTYPE
0
LTYPE
72
65
70
64
2
CONTINUOUS
3
______
73
0
40
0
0
ENDTAB
0
TABLE
2
LAYER
0
ENDTAB
0
ENDSEC
0
SECTION
2
ENTITIES
0
LINE
8
0
10
84.7805308
20
-51.4665402
11
102.5605308
21
-51.4665402
0
LINE
8
0
10
103.5605308
20
-50.4665402
11
103.5605308
21
-29.9665402
0
LINE
8
0
10
102.5605308
20
-28.9665402
11
84.7805308
21
-28.9665402
0
LINE
8
0
10
83.7805308
20
-29.9665402
11
83.7805308
21
-50.4665402
0
ARC
8
0
10
102.5605308
20
-50.4665402
40
1
50
270
51
0
0
ARC
8
0
10
102.5605308
20
-29.9665402
40
1
50
0
51
90
0
ARC
8
0
10
84.7805308
20
-29.9665402
40
1
50
90
51
180
0
ARC
8
0
10
84.7805308
20
-50.4665402
40
1
50
180
51
270
0
LINE
8
0
10
119.1799021
20
-111.8578088
11
151.4491597
21
-110.4489026
0
LINE
8
0
10
151.4491597
20
-110.4489026
11
150.8690219
21
-97.1615612
0
LINE
8
0
10
150.8690219
20
-97.1615612
11
119.4673247
21
-98.5325889
0
LINE
8
0
10
118.8263619
20
-103.7604069
11
119.1799021
21
-111.8578088
0
LINE
8
0
10
119.4673247
20
-98.5325889
11
119.4673196
21
-98.5324729
0
LINE
8
0
10
119.4673196
20
-98.5324729
11
111.4749339
21
-98.881428
0
LINE
8
0
10
111.4749339
20
-98.881428
11
111.7015366
21
-104.0714835
0
LINE
8
0
10
111.7015366
20
-104.0714835
11
118.8263619
21
-103.7604069
0
LINE
8
0
10
121.3205308
20
-33.5335402
11
121.3205308
21
-27.9335402
0
LINE
8
0
10
121.3205308
20
-27.9335402
11
112.0205308
21
-27.9335402
0
LINE
8
0
10
112.0205308
20
-27.9335402
11
112.0205308
21
-33.5335402
0
LINE
8
0
10
112.0205308
20
-33.5335402
11
121.3205308
21
-33.5335402
0
LINE
8
0
10
171.3805308
20
-33.8835402
11
180.8805308
21
-33.8835402
0
LINE
8
0
10
180.8805308
20
-33.8835402
11
180.8805308
21
-26.8835402
0
LINE
8
0
10
180.8805308
20
-26.8835402
11
171.3805308
21
-26.8835402
0
LINE
8
0
10
171.3805308
20
-26.8835402
11
171.3805308
21
-33.8835402
0
CIRCLE
8
0
10
107.6705308
20
-33.7165402
40
1.5
0
CIRCLE
8
0
10
189.4205308
20
-33.7165402
40
1.5
0
CIRCLE
8
0
10
86.6705308
20
-109.7165402
40
1.5
0
CIRCLE
8
0
10
189.4205308
20
-97.2165402
40
1.5
0
CIRCLE
8
0
10
329.6705308
20
-33.7165402
40
1.5
0
CIRCLE
8
0
10
247.9205308
20
-33.7165402
40
1.5
0
CIRCLE
8
0
10
350.6705308
20
-109.7165402
40
1.5
0
CIRCLE
8
0
10
247.9205308
20
-97.2165402
40
1.5
0
ENDSEC
0
EOF