0
SECTION
2
HEADER
9
$INSUNITS
70
4
0
ENDSEC
0
SECTION
2
TABLES
0
TABLE
2
LTYPE
0
LTYPE
72
65
70
64
2
CONTINUOUS
3
______
73
0
40
0
0
ENDTAB
0
TABLE
2
LAYER
0
ENDTAB
0
ENDSEC
0
SECTION
2
ENTITIES
0
LINE
8
0
10
224.4885343
20
-111.7461681
11
245.7480308
21
-106.0497032
0
LINE
8
0
10
224.4885343
20
-111.7461681
11
230.5254064
21
-134.2760789
0
LINE
8
0
10
230.5254064
20
-134.2760789
11
309.8969414
21
-113.0085402
0
LINE
8
0
10
309.8969414
20
-113.0085402
11
354.7480308
21
-113.0085402
0
LINE
8
0
10
354.7480308
20
-113.0085402
11
354.7480308
21
-29.0085402
0
LINE
8
0
10
354.7480308
20
-29.0085402
11
245.7480308
21
-29.0085402
0
LINE
8
0
10
245.7480308
20
-29.0085402
11
245.7480308
21
-106.0497032
0
CIRCLE
8
0
10
329.6705308
20
-33.7165402
40
1.1
0
CIRCLE
8
0
10
337.3410616
20
-100
40
2.8
0
CIRCLE
8
0
10
339.7557962
20
-81.6582701
40
2.8
0
CIRCLE
8
0
10
342.1705308
20
-63.3165402
40
2.8
0
CIRCLE
8
0
10
318.5567059
20
-87.4522174
40
2.8
0
CIRCLE
8
0
10
319.3636646
20
-68.9698253
40
2.8
0
CIRCLE
8
0
10
320.1706233
20
-50.4874332
40
2.8
0
CIRCLE
8
0
10
298.7065996
20
-83.582685
40
2.8
0
CIRCLE
8
0
10
298.7065996
20
-65.082685
40
2.8
0
CIRCLE
8
0
10
298.7065996
20
-46.582685
40
2.8
0
CIRCLE
8
0
10
279.7065996
20
-85.582685
40
2.8
0
CIRCLE
8
0
10
279.7065996
20
-67.082685
40
2.8
0
CIRCLE
8
0
10
279.7065996
20
-48.582685
40
2.8
0
CIRCLE
8
0
10
261.2065997
20
-87.5826851
40
2.8
0
CIRCLE
8
0
10
261.2065997
20
-69.0826851
40
2.8
0
CIRCLE
8
0
10
261.2065997
20
-50.5826851
40
2.8
0
CIRCLE
8
0
10
273.2637535
20
-106.9001718
40
2.8
0
CIRCLE
8
0
10
254.2936038
20
-113.6732109
40
2.8
0
CIRCLE
8
0
10
237.2963074
20
-122.5485344
40
2.8
0
CIRCLE
8
0
10
331.8881149
20
-99.2821059
40
1
0
CIRCLE
8
0
10
334.3028495
20
-80.940376
40
1
0
CIRCLE
8
0
10
336.7175841
20
-62.5986461
40
1
0
CIRCLE
8
0
10
313.0619407
20
-87.2123108
40
1
0
CIRCLE
8
0
10
313.8688994
20
-68.7299187
40
1
0
CIRCLE
8
0
10
314.6758581
20
-50.2475266
40
1
0
CIRCLE
8
0
10
293.2065996
20
-83.582685
40
1
0
CIRCLE
8
0
10
293.2065996
20
-65.082685
40
1
0
CIRCLE
8
0
10
293.2065996
20
-46.582685
40
1
0
CIRCLE
8
0
10
274.2065996
20
-85.582685
40
1
0
CIRCLE
8
0
10
274.2065996
20
-67.082685
40
1
0
CIRCLE
8
0
10
274.2065996
20
-48.582685
40
1
0
CIRCLE
8
0
10
255.7065997
20
-87.5826851
40
1
0
CIRCLE
8
0
10
255.7065997
20
-69.0826851
40
1
0
CIRCLE
8
0
10
255.7065997
20
-50.5826851
40
1
0
CIRCLE
8
0
10
268.0479734
20
-108.6453474
40
1
0
CIRCLE
8
0
10
248.9810118
20
-115.0967156
40
1
0
CIRCLE
8
0
10
231.9837154
20
-123.9720391
40
1
0
CIRCLE
8
0
10
342.7940083
20
-100.7178941
40
1
0
CIRCLE
8
0
10
345.2087429
20
-82.3761642
40
1
0
CIRCLE
8
0
10
347.6234775
20
-64.0344343
40
1
0
CIRCLE
8
0
10
324.0514711
20
-87.692124
40
1
0
CIRCLE
8
0
10
324.8584298
20
-69.2097319
40
1
0
CIRCLE
8
0
10
325.6653885
20
-50.7273398
40
1
0
CIRCLE
8
0
10
304.2065996
20
-83.582685
40
1
0
CIRCLE
8
0
10
304.2065996
20
-65.082685
40
1
0
CIRCLE
8
0
10
304.2065996
20
-46.582685
40
1
0
CIRCLE
8
0
10
285.2065996
20
-85.582685
40
1
0
CIRCLE
8
0
10
285.2065996
20
-67.082685
40
1
0
CIRCLE
8
0
10
285.2065996
20
-48.582685
40
1
0
CIRCLE
8
0
10
266.7065997
20
-87.5826851
40
1
0
CIRCLE
8
0
10
266.7065997
20
-69.0826851
40
1
0
CIRCLE
8
0
10
266.7065997
20
-50.5826851
40
1
0
CIRCLE
8
0
10
278.4795336
20
-105.1549962
40
1
0
CIRCLE
8
0
10
259.6061958
20
-112.2497062
40
1
0
CIRCLE
8
0
10
242.6088994
20
-121.1250297
40
1
0
CIRCLE
8
0
10
264.7105308
20
-32.6085402
40
1.25
0
CIRCLE
8
0
10
257.7105308
20
-32.6085402
40
1.25
0
CIRCLE
8
0
10
263.7105308
20
-30.1085402
40
1.25
0
CIRCLE
8
0
10
258.7105308
20
-30.1085402
40
1.25
0
CIRCLE
8
0
10
329.6705308
20
-33.7165402
40
1.225
0
CIRCLE
8
0
10
247.9205308
20
-33.7165402
40
1.225
0
CIRCLE
8
0
10
350.6705308
20
-109.7165402
40
1.225
0
CIRCLE
8
0
10
247.9205308
20
-97.2165402
40
1.225
0
ENDSEC
0
EOF