0
SECTION
2
HEADER
9
$INSUNITS
70
4
0
ENDSEC
0
SECTION
2
TABLES
0
TABLE
2
LTYPE
0
LTYPE
72
65
70
64
2
CONTINUOUS
3
______
73
0
40
0
0
ENDTAB
0
TABLE
2
LAYER
0
ENDTAB
0
ENDSEC
0
SECTION
2
ENTITIES
0
LINE
8
0
10
191.5930308
20
-106.0497032
11
212.8525273
21
-111.7461681
0
LINE
8
0
10
206.8156552
20
-134.2760789
11
212.8525273
21
-111.7461681
0
LINE
8
0
10
127.4441202
20
-113.0085402
11
206.8156552
21
-134.2760789
0
LINE
8
0
10
82.5930308
20
-113.0085402
11
127.4441202
21
-113.0085402
0
LINE
8
0
10
191.5930308
20
-106.0497032
11
191.5930308
21
-29.0085402
0
LINE
8
0
10
191.5930308
20
-29.0085402
11
82.5930308
21
-29.0085402
0
LINE
8
0
10
82.5930308
20
-29.0085402
11
82.5930308
21
-113.0085402
0
CIRCLE
8
0
10
107.6705308
20
-33.7165402
40
1.1
0
CIRCLE
8
0
10
100
20
-100
40
2.8
0
CIRCLE
8
0
10
97.5852654
20
-81.6582701
40
2.8
0
CIRCLE
8
0
10
95.1705308
20
-63.3165402
40
2.8
0
CIRCLE
8
0
10
118.7843557
20
-87.4522174
40
2.8
0
CIRCLE
8
0
10
117.977397
20
-68.9698253
40
2.8
0
CIRCLE
8
0
10
117.1704383
20
-50.4874332
40
2.8
0
CIRCLE
8
0
10
138.634462
20
-83.582685
40
2.8
0
CIRCLE
8
0
10
138.634462
20
-65.082685
40
2.8
0
CIRCLE
8
0
10
138.634462
20
-46.582685
40
2.8
0
CIRCLE
8
0
10
157.634462
20
-85.582685
40
2.8
0
CIRCLE
8
0
10
157.634462
20
-67.082685
40
2.8
0
CIRCLE
8
0
10
157.634462
20
-48.582685
40
2.8
0
CIRCLE
8
0
10
176.1344619
20
-87.5826851
40
2.8
0
CIRCLE
8
0
10
176.1344619
20
-69.0826851
40
2.8
0
CIRCLE
8
0
10
176.1344619
20
-50.5826851
40
2.8
0
CIRCLE
8
0
10
164.0773081
20
-106.9001718
40
2.8
0
CIRCLE
8
0
10
183.0474578
20
-113.6732109
40
2.8
0
CIRCLE
8
0
10
200.0447542
20
-122.5485344
40
2.8
0
CIRCLE
8
0
10
105.4529467
20
-99.2821059
40
1
0
CIRCLE
8
0
10
103.0382121
20
-80.940376
40
1
0
CIRCLE
8
0
10
100.6234775
20
-62.5986461
40
1
0
CIRCLE
8
0
10
124.2791209
20
-87.2123108
40
1
0
CIRCLE
8
0
10
123.4721622
20
-68.7299187
40
1
0
CIRCLE
8
0
10
122.6652035
20
-50.2475266
40
1
0
CIRCLE
8
0
10
144.134462
20
-83.582685
40
1
0
CIRCLE
8
0
10
144.134462
20
-65.082685
40
1
0
CIRCLE
8
0
10
144.134462
20
-46.582685
40
1
0
CIRCLE
8
0
10
163.134462
20
-85.582685
40
1
0
CIRCLE
8
0
10
163.134462
20
-67.082685
40
1
0
CIRCLE
8
0
10
163.134462
20
-48.582685
40
1
0
CIRCLE
8
0
10
181.6344619
20
-87.5826851
40
1
0
CIRCLE
8
0
10
181.6344619
20
-69.0826851
40
1
0
CIRCLE
8
0
10
181.6344619
20
-50.5826851
40
1
0
CIRCLE
8
0
10
169.2930882
20
-108.6453474
40
1
0
CIRCLE
8
0
10
188.3600498
20
-115.0967156
40
1
0
CIRCLE
8
0
10
205.3573462
20
-123.9720391
40
1
0
CIRCLE
8
0
10
94.5470533
20
-100.7178941
40
1
0
CIRCLE
8
0
10
92.1323187
20
-82.3761642
40
1
0
CIRCLE
8
0
10
89.7175841
20
-64.0344343
40
1
0
CIRCLE
8
0
10
113.2895905
20
-87.692124
40
1
0
CIRCLE
8
0
10
112.4826318
20
-69.2097319
40
1
0
CIRCLE
8
0
10
111.6756731
20
-50.7273398
40
1
0
CIRCLE
8
0
10
133.134462
20
-83.582685
40
1
0
CIRCLE
8
0
10
133.134462
20
-65.082685
40
1
0
CIRCLE
8
0
10
133.134462
20
-46.582685
40
1
0
CIRCLE
8
0
10
152.134462
20
-85.582685
40
1
0
CIRCLE
8
0
10
152.134462
20
-67.082685
40
1
0
CIRCLE
8
0
10
152.134462
20
-48.582685
40
1
0
CIRCLE
8
0
10
170.6344619
20
-87.5826851
40
1
0
CIRCLE
8
0
10
170.6344619
20
-69.0826851
40
1
0
CIRCLE
8
0
10
170.6344619
20
-50.5826851
40
1
0
CIRCLE
8
0
10
158.861528
20
-105.1549962
40
1
0
CIRCLE
8
0
10
177.7348658
20
-112.2497062
40
1
0
CIRCLE
8
0
10
194.7321622
20
-121.1250297
40
1
0
CIRCLE
8
0
10
175.1705308
20
-34.2165402
40
3.5
0
CIRCLE
8
0
10
114.6705308
20
-32.6085402
40
1.25
0
CIRCLE
8
0
10
121.6705308
20
-32.6085402
40
1.25
0
CIRCLE
8
0
10
115.6705308
20
-30.1085402
40
1.25
0
CIRCLE
8
0
10
120.6705308
20
-30.1085402
40
1.25
0
CIRCLE
8
0
10
107.6705308
20
-33.7165402
40
1.225
0
CIRCLE
8
0
10
189.4205308
20
-33.7165402
40
1.225
0
CIRCLE
8
0
10
86.6705308
20
-109.7165402
40
1.225
0
CIRCLE
8
0
10
189.4205308
20
-97.2165402
40
1.225
0
CIRCLE
8
0
10
107.6705308
20
-33.7165402
40
2.25
0
CIRCLE
8
0
10
189.4205308
20
-33.7165402
40
2.25
0
CIRCLE
8
0
10
86.6705308
20
-109.7165402
40
2.25
0
CIRCLE
8
0
10
189.4205308
20
-97.2165402
40
2.25
0
ENDSEC
0
EOF