0
SECTION
2
HEADER
9
$INSUNITS
70
4
0
ENDSEC
0
SECTION
2
TABLES
0
TABLE
2
LTYPE
0
LTYPE
72
65
70
64
2
CONTINUOUS
3
______
73
0
40
0
0
ENDTAB
0
TABLE
2
LAYER
0
ENDTAB
0
ENDSEC
0
SECTION
2
ENTITIES
0
LINE
8
0
10
92.3260903
20
-110.08795
11
110.0233811
21
-107.7580575
0
LINE
8
0
10
110.0233811
20
-107.7580575
11
107.6739097
21
-89.91205
0
LINE
8
0
10
107.6739097
20
-89.91205
11
89.9766189
21
-92.2419425
0
LINE
8
0
10
89.9766189
20
-92.2419425
11
92.3260903
21
-110.08795
0
LINE
8
0
10
89.9113557
20
-91.7462201
11
107.6086465
21
-89.4163276
0
LINE
8
0
10
107.6086465
20
-89.4163276
11
105.2591751
21
-71.5703201
0
LINE
8
0
10
105.2591751
20
-71.5703201
11
87.5618843
21
-73.9002126
0
LINE
8
0
10
87.5618843
20
-73.9002126
11
89.9113557
21
-91.7462201
0
LINE
8
0
10
87.4966211
20
-73.4044902
11
105.1939119
21
-71.0745977
0
LINE
8
0
10
105.1939119
20
-71.0745977
11
102.8444405
21
-53.2285902
0
LINE
8
0
10
102.8444405
20
-53.2285902
11
85.1471497
21
-55.5584827
0
LINE
8
0
10
85.1471497
20
-55.5584827
11
87.4966211
21
-73.4044902
0
LINE
8
0
10
110.2604248
20
-96.8329544
11
128.0934356
21
-96.0543484
0
LINE
8
0
10
128.0934356
20
-96.0543484
11
127.3082866
21
-78.0714804
0
LINE
8
0
10
127.3082866
20
-78.0714804
11
109.4752758
21
-78.8500864
0
LINE
8
0
10
109.4752758
20
-78.8500864
11
110.2604248
21
-96.8329544
0
LINE
8
0
10
109.4534661
20
-78.3505623
11
127.2864769
21
-77.5719563
0
LINE
8
0
10
127.2864769
20
-77.5719563
11
126.5013279
21
-59.5890883
0
LINE
8
0
10
126.5013279
20
-59.5890883
11
108.6683171
21
-60.3676943
0
LINE
8
0
10
108.6683171
20
-60.3676943
11
109.4534661
21
-78.3505623
0
LINE
8
0
10
108.6465074
20
-59.8681702
11
126.4795182
21
-59.0895642
0
LINE
8
0
10
126.4795182
20
-59.0895642
11
125.6943692
21
-41.1066962
0
LINE
8
0
10
125.6943692
20
-41.1066962
11
107.8613584
21
-41.8853022
0
LINE
8
0
10
107.8613584
20
-41.8853022
11
108.6465074
21
-59.8681702
0
LINE
8
0
10
129.709462
20
-92.582685
11
147.559462
21
-92.582685
0
LINE
8
0
10
147.559462
20
-92.582685
11
147.559462
21
-74.582685
0
LINE
8
0
10
147.559462
20
-74.582685
11
129.709462
21
-74.582685
0
LINE
8
0
10
129.709462
20
-74.582685
11
129.709462
21
-92.582685
0
LINE
8
0
10
129.709462
20
-74.082685
11
147.559462
21
-74.082685
0
LINE
8
0
10
147.559462
20
-74.082685
11
147.559462
21
-56.082685
0
LINE
8
0
10
147.559462
20
-56.082685
11
129.709462
21
-56.082685
0
LINE
8
0
10
129.709462
20
-56.082685
11
129.709462
21
-74.082685
0
LINE
8
0
10
129.709462
20
-55.582685
11
147.559462
21
-55.582685
0
LINE
8
0
10
147.559462
20
-55.582685
11
147.559462
21
-37.582685
0
LINE
8
0
10
147.559462
20
-37.582685
11
129.709462
21
-37.582685
0
LINE
8
0
10
129.709462
20
-37.582685
11
129.709462
21
-55.582685
0
LINE
8
0
10
148.709462
20
-94.582685
11
166.559462
21
-94.582685
0
LINE
8
0
10
166.559462
20
-94.582685
11
166.559462
21
-76.582685
0
LINE
8
0
10
166.559462
20
-76.582685
11
148.709462
21
-76.582685
0
LINE
8
0
10
148.709462
20
-76.582685
11
148.709462
21
-94.582685
0
LINE
8
0
10
148.709462
20
-76.082685
11
166.559462
21
-76.082685
0
LINE
8
0
10
166.559462
20
-76.082685
11
166.559462
21
-58.082685
0
LINE
8
0
10
166.559462
20
-58.082685
11
148.709462
21
-58.082685
0
LINE
8
0
10
148.709462
20
-58.082685
11
148.709462
21
-76.082685
0
LINE
8
0
10
148.709462
20
-57.582685
11
166.559462
21
-57.582685
0
LINE
8
0
10
166.559462
20
-57.582685
11
166.559462
21
-39.582685
0
LINE
8
0
10
166.559462
20
-39.582685
11
148.709462
21
-39.582685
0
LINE
8
0
10
148.709462
20
-39.582685
11
148.709462
21
-57.582685
0
LINE
8
0
10
167.2094619
20
-96.5826851
11
185.0594619
21
-96.5826851
0
LINE
8
0
10
185.0594619
20
-96.5826851
11
185.0594619
21
-78.5826851
0
LINE
8
0
10
185.0594619
20
-78.5826851
11
167.2094619
21
-78.5826851
0
LINE
8
0
10
167.2094619
20
-78.5826851
11
167.2094619
21
-96.5826851
0
LINE
8
0
10
167.2094619
20
-78.0826851
11
185.0594619
21
-78.0826851
0
LINE
8
0
10
185.0594619
20
-78.0826851
11
185.0594619
21
-60.0826851
0
LINE
8
0
10
185.0594619
20
-60.0826851
11
167.2094619
21
-60.0826851
0
LINE
8
0
10
167.2094619
20
-60.0826851
11
167.2094619
21
-78.0826851
0
LINE
8
0
10
167.2094619
20
-59.5826851
11
185.0594619
21
-59.5826851
0
LINE
8
0
10
185.0594619
20
-59.5826851
11
185.0594619
21
-41.5826851
0
LINE
8
0
10
185.0594619
20
-41.5826851
11
167.2094619
21
-41.5826851
0
LINE
8
0
10
167.2094619
20
-41.5826851
11
167.2094619
21
-59.5826851
0
LINE
8
0
10
327.3176805
20
-107.7580575
11
345.0149713
21
-110.08795
0
LINE
8
0
10
345.0149713
20
-110.08795
11
347.3644427
21
-92.2419425
0
LINE
8
0
10
347.3644427
20
-92.2419425
11
329.6671519
21
-89.91205
0
LINE
8
0
10
329.6671519
20
-89.91205
11
327.3176805
21
-107.7580575
0
LINE
8
0
10
329.7324151
20
-89.4163276
11
347.4297059
21
-91.7462201
0
LINE
8
0
10
347.4297059
20
-91.7462201
11
349.7791773
21
-73.9002126
0
LINE
8
0
10
349.7791773
20
-73.9002126
11
332.0818865
21
-71.5703201
0
LINE
8
0
10
332.0818865
20
-71.5703201
11
329.7324151
21
-89.4163276
0
LINE
8
0
10
332.1471497
20
-71.0745977
11
349.8444405
21
-73.4044902
0
LINE
8
0
10
349.8444405
20
-73.4044902
11
352.1939119
21
-55.5584827
0
LINE
8
0
10
352.1939119
20
-55.5584827
11
334.4966211
21
-53.2285902
0
LINE
8
0
10
334.4966211
20
-53.2285902
11
332.1471497
21
-71.0745977
0
LINE
8
0
10
309.247626
20
-96.0543484
11
327.0806368
21
-96.8329544
0
LINE
8
0
10
327.0806368
20
-96.8329544
11
327.8657858
21
-78.8500864
0
LINE
8
0
10
327.8657858
20
-78.8500864
11
310.032775
21
-78.0714804
0
LINE
8
0
10
310.032775
20
-78.0714804
11
309.247626
21
-96.0543484
0
LINE
8
0
10
310.0545847
20
-77.5719563
11
327.8875955
21
-78.3505623
0
LINE
8
0
10
327.8875955
20
-78.3505623
11
328.6727445
21
-60.3676943
0
LINE
8
0
10
328.6727445
20
-60.3676943
11
310.8397337
21
-59.5890883
0
LINE
8
0
10
310.8397337
20
-59.5890883
11
310.0545847
21
-77.5719563
0
LINE
8
0
10
310.8615434
20
-59.0895642
11
328.6945542
21
-59.8681702
0
LINE
8
0
10
328.6945542
20
-59.8681702
11
329.4797032
21
-41.8853022
0
LINE
8
0
10
329.4797032
20
-41.8853022
11
311.6466924
21
-41.1066962
0
LINE
8
0
10
311.6466924
20
-41.1066962
11
310.8615434
21
-59.0895642
0
LINE
8
0
10
289.7815996
20
-92.582685
11
307.6315996
21
-92.582685
0
LINE
8
0
10
307.6315996
20
-92.582685
11
307.6315996
21
-74.582685
0
LINE
8
0
10
307.6315996
20
-74.582685
11
289.7815996
21
-74.582685
0
LINE
8
0
10
289.7815996
20
-74.582685
11
289.7815996
21
-92.582685
0
LINE
8
0
10
289.7815996
20
-74.082685
11
307.6315996
21
-74.082685
0
LINE
8
0
10
307.6315996
20
-74.082685
11
307.6315996
21
-56.082685
0
LINE
8
0
10
307.6315996
20
-56.082685
11
289.7815996
21
-56.082685
0
LINE
8
0
10
289.7815996
20
-56.082685
11
289.7815996
21
-74.082685
0
LINE
8
0
10
289.7815996
20
-55.582685
11
307.6315996
21
-55.582685
0
LINE
8
0
10
307.6315996
20
-55.582685
11
307.6315996
21
-37.582685
0
LINE
8
0
10
307.6315996
20
-37.582685
11
289.7815996
21
-37.582685
0
LINE
8
0
10
289.7815996
20
-37.582685
11
289.7815996
21
-55.582685
0
LINE
8
0
10
270.7815996
20
-94.582685
11
288.6315996
21
-94.582685
0
LINE
8
0
10
288.6315996
20
-94.582685
11
288.6315996
21
-76.582685
0
LINE
8
0
10
288.6315996
20
-76.582685
11
270.7815996
21
-76.582685
0
LINE
8
0
10
270.7815996
20
-76.582685
11
270.7815996
21
-94.582685
0
LINE
8
0
10
270.7815996
20
-76.082685
11
288.6315996
21
-76.082685
0
LINE
8
0
10
288.6315996
20
-76.082685
11
288.6315996
21
-58.082685
0
LINE
8
0
10
288.6315996
20
-58.082685
11
270.7815996
21
-58.082685
0
LINE
8
0
10
270.7815996
20
-58.082685
11
270.7815996
21
-76.082685
0
LINE
8
0
10
270.7815996
20
-57.582685
11
288.6315996
21
-57.582685
0
LINE
8
0
10
288.6315996
20
-57.582685
11
288.6315996
21
-39.582685
0
LINE
8
0
10
288.6315996
20
-39.582685
11
270.7815996
21
-39.582685
0
LINE
8
0
10
270.7815996
20
-39.582685
11
270.7815996
21
-57.582685
0
LINE
8
0
10
252.2815997
20
-96.5826851
11
270.1315997
21
-96.5826851
0
LINE
8
0
10
270.1315997
20
-96.5826851
11
270.1315997
21
-78.5826851
0
LINE
8
0
10
270.1315997
20
-78.5826851
11
252.2815997
21
-78.5826851
0
LINE
8
0
10
252.2815997
20
-78.5826851
11
252.2815997
21
-96.5826851
0
LINE
8
0
10
252.2815997
20
-78.0826851
11
270.1315997
21
-78.0826851
0
LINE
8
0
10
270.1315997
20
-78.0826851
11
270.1315997
21
-60.0826851
0
LINE
8
0
10
270.1315997
20
-60.0826851
11
252.2815997
21
-60.0826851
0
LINE
8
0
10
252.2815997
20
-60.0826851
11
252.2815997
21
-78.0826851
0
LINE
8
0
10
252.2815997
20
-59.5826851
11
270.1315997
21
-59.5826851
0
LINE
8
0
10
270.1315997
20
-59.5826851
11
270.1315997
21
-41.5826851
0
LINE
8
0
10
270.1315997
20
-41.5826851
11
252.2815997
21
-41.5826851
0
LINE
8
0
10
252.2815997
20
-41.5826851
11
252.2815997
21
-59.5826851
0
LINE
8
0
10
172.0036088
20
-120.2126794
11
189.3419774
21
-124.8584813
0
LINE
8
0
10
189.3419774
20
-124.8584813
11
194.0913068
21
-107.1337424
0
LINE
8
0
10
194.0913068
20
-107.1337424
11
176.7529382
21
-102.4879405
0
LINE
8
0
10
176.7529382
20
-102.4879405
11
172.0036088
21
-120.2126794
0
LINE
8
0
10
189.0009052
20
-129.0880029
11
206.3392738
21
-133.7338048
0
LINE
8
0
10
206.3392738
20
-133.7338048
11
211.0886032
21
-116.0090659
0
LINE
8
0
10
211.0886032
20
-116.0090659
11
193.7502346
21
-111.363264
0
LINE
8
0
10
193.7502346
20
-111.363264
11
189.0009052
21
-129.0880029
0
LINE
8
0
10
151.946171
20
-113.0275458
11
170.0781193
21
-119.0944108
0
LINE
8
0
10
170.0781193
20
-119.0944108
11
176.2084452
21
-100.7727978
0
LINE
8
0
10
176.2084452
20
-100.7727978
11
158.0764969
21
-94.7059328
0
LINE
8
0
10
158.0764969
20
-94.7059328
11
151.946171
21
-113.0275458
0
ENDSEC
0
EOF