0
SECTION
2
HEADER
9
$INSUNITS
70
4
0
ENDSEC
0
SECTION
2
TABLES
0
TABLE
2
LTYPE
0
LTYPE
72
65
70
64
2
CONTINUOUS
3
______
73
0
40
0
0
ENDTAB
0
TABLE
2
LAYER
0
ENDTAB
0
ENDSEC
0
SECTION
2
ENTITIES
0
LINE
8
0
10
91.3908133
20
-111.2197105
11
109.9897087
21
-108.7711195
0
LINE
8
0
10
83.4287155
20
-50.7415741
11
91.3908133
21
-111.2197105
0
LINE
8
0
10
83.4287155
20
-50.7415741
11
107.0363093
21
-47.6335754
0
LINE
8
0
10
106.7437622
20
-40.9331449
11
128.634462
21
-39.9773762
0
LINE
8
0
10
106.7437622
20
-40.9331449
11
107.0363093
21
-47.6335754
0
LINE
8
0
10
148.634462
20
-38.582685
11
148.634462
21
-36.582685
0
LINE
8
0
10
148.634462
20
-36.582685
11
128.634462
21
-36.582685
0
LINE
8
0
10
128.634462
20
-36.582685
11
128.634462
21
-39.9773762
0
LINE
8
0
10
167.634462
20
-40.5826851
11
167.634462
21
-38.582685
0
LINE
8
0
10
167.634462
20
-38.582685
11
148.634462
21
-38.582685
0
LINE
8
0
10
191.1344619
20
-105.4870242
11
191.1344619
21
-40.5826851
0
LINE
8
0
10
167.634462
20
-40.5826851
11
191.1344619
21
-40.5826851
0
LINE
8
0
10
109.9897087
20
-108.7711195
11
207.115822
21
-134.7959831
0
LINE
8
0
10
207.115822
20
-134.7959831
11
213.3725136
21
-111.4456922
0
LINE
8
0
10
191.1344619
20
-105.4870242
11
213.3725136
21
-111.4456922
0
CIRCLE
8
0
10
189.1344619
20
-42.5826851
40
1.1
0
LINE
8
0
10
92.3260903
20
-110.08795
11
110.0233811
21
-107.7580575
0
LINE
8
0
10
110.0233811
20
-107.7580575
11
107.6739097
21
-89.91205
0
LINE
8
0
10
107.6739097
20
-89.91205
11
89.9766189
21
-92.2419425
0
LINE
8
0
10
89.9766189
20
-92.2419425
11
92.3260903
21
-110.08795
0
LINE
8
0
10
89.9113557
20
-91.7462201
11
107.6086465
21
-89.4163276
0
LINE
8
0
10
107.6086465
20
-89.4163276
11
105.2591751
21
-71.5703201
0
LINE
8
0
10
105.2591751
20
-71.5703201
11
87.5618843
21
-73.9002126
0
LINE
8
0
10
87.5618843
20
-73.9002126
11
89.9113557
21
-91.7462201
0
LINE
8
0
10
87.4966211
20
-73.4044902
11
105.1939119
21
-71.0745977
0
LINE
8
0
10
105.1939119
20
-71.0745977
11
102.8444405
21
-53.2285902
0
LINE
8
0
10
102.8444405
20
-53.2285902
11
85.1471497
21
-55.5584827
0
LINE
8
0
10
85.1471497
20
-55.5584827
11
87.4966211
21
-73.4044902
0
LINE
8
0
10
110.2604248
20
-96.8329544
11
128.0934356
21
-96.0543484
0
LINE
8
0
10
128.0934356
20
-96.0543484
11
127.3082866
21
-78.0714804
0
LINE
8
0
10
127.3082866
20
-78.0714804
11
109.4752758
21
-78.8500864
0
LINE
8
0
10
109.4752758
20
-78.8500864
11
110.2604248
21
-96.8329544
0
LINE
8
0
10
109.4534661
20
-78.3505623
11
127.2864769
21
-77.5719563
0
LINE
8
0
10
127.2864769
20
-77.5719563
11
126.5013279
21
-59.5890883
0
LINE
8
0
10
126.5013279
20
-59.5890883
11
108.6683171
21
-60.3676943
0
LINE
8
0
10
108.6683171
20
-60.3676943
11
109.4534661
21
-78.3505623
0
LINE
8
0
10
108.6465074
20
-59.8681702
11
126.4795182
21
-59.0895642
0
LINE
8
0
10
126.4795182
20
-59.0895642
11
125.6943692
21
-41.1066962
0
LINE
8
0
10
125.6943692
20
-41.1066962
11
107.8613584
21
-41.8853022
0
LINE
8
0
10
107.8613584
20
-41.8853022
11
108.6465074
21
-59.8681702
0
LINE
8
0
10
129.709462
20
-92.582685
11
147.559462
21
-92.582685
0
LINE
8
0
10
147.559462
20
-92.582685
11
147.559462
21
-74.582685
0
LINE
8
0
10
147.559462
20
-74.582685
11
129.709462
21
-74.582685
0
LINE
8
0
10
129.709462
20
-74.582685
11
129.709462
21
-92.582685
0
LINE
8
0
10
129.709462
20
-74.082685
11
147.559462
21
-74.082685
0
LINE
8
0
10
147.559462
20
-74.082685
11
147.559462
21
-56.082685
0
LINE
8
0
10
147.559462
20
-56.082685
11
129.709462
21
-56.082685
0
LINE
8
0
10
129.709462
20
-56.082685
11
129.709462
21
-74.082685
0
LINE
8
0
10
129.709462
20
-55.582685
11
147.559462
21
-55.582685
0
LINE
8
0
10
147.559462
20
-55.582685
11
147.559462
21
-37.582685
0
LINE
8
0
10
147.559462
20
-37.582685
11
129.709462
21
-37.582685
0
LINE
8
0
10
129.709462
20
-37.582685
11
129.709462
21
-55.582685
0
LINE
8
0
10
148.709462
20
-94.582685
11
166.559462
21
-94.582685
0
LINE
8
0
10
166.559462
20
-94.582685
11
166.559462
21
-76.582685
0
LINE
8
0
10
166.559462
20
-76.582685
11
148.709462
21
-76.582685
0
LINE
8
0
10
148.709462
20
-76.582685
11
148.709462
21
-94.582685
0
LINE
8
0
10
148.709462
20
-76.082685
11
166.559462
21
-76.082685
0
LINE
8
0
10
166.559462
20
-76.082685
11
166.559462
21
-58.082685
0
LINE
8
0
10
166.559462
20
-58.082685
11
148.709462
21
-58.082685
0
LINE
8
0
10
148.709462
20
-58.082685
11
148.709462
21
-76.082685
0
LINE
8
0
10
148.709462
20
-57.582685
11
166.559462
21
-57.582685
0
LINE
8
0
10
166.559462
20
-57.582685
11
166.559462
21
-39.582685
0
LINE
8
0
10
166.559462
20
-39.582685
11
148.709462
21
-39.582685
0
LINE
8
0
10
148.709462
20
-39.582685
11
148.709462
21
-57.582685
0
LINE
8
0
10
167.2094619
20
-96.5826851
11
185.0594619
21
-96.5826851
0
LINE
8
0
10
185.0594619
20
-96.5826851
11
185.0594619
21
-78.5826851
0
LINE
8
0
10
185.0594619
20
-78.5826851
11
167.2094619
21
-78.5826851
0
LINE
8
0
10
167.2094619
20
-78.5826851
11
167.2094619
21
-96.5826851
0
LINE
8
0
10
167.2094619
20
-78.0826851
11
185.0594619
21
-78.0826851
0
LINE
8
0
10
185.0594619
20
-78.0826851
11
185.0594619
21
-60.0826851
0
LINE
8
0
10
185.0594619
20
-60.0826851
11
167.2094619
21
-60.0826851
0
LINE
8
0
10
167.2094619
20
-60.0826851
11
167.2094619
21
-78.0826851
0
LINE
8
0
10
167.2094619
20
-59.5826851
11
185.0594619
21
-59.5826851
0
LINE
8
0
10
185.0594619
20
-59.5826851
11
185.0594619
21
-41.5826851
0
LINE
8
0
10
185.0594619
20
-41.5826851
11
167.2094619
21
-41.5826851
0
LINE
8
0
10
167.2094619
20
-41.5826851
11
167.2094619
21
-59.5826851
0
LINE
8
0
10
322.2455427
20
-107.7580575
11
339.9428335
21
-110.08795
0
LINE
8
0
10
339.9428335
20
-110.08795
11
342.2923049
21
-92.2419425
0
LINE
8
0
10
342.2923049
20
-92.2419425
11
324.5950141
21
-89.91205
0
LINE
8
0
10
324.5950141
20
-89.91205
11
322.2455427
21
-107.7580575
0
LINE
8
0
10
324.6602773
20
-89.4163276
11
342.3575681
21
-91.7462201
0
LINE
8
0
10
342.3575681
20
-91.7462201
11
344.7070395
21
-73.9002126
0
LINE
8
0
10
344.7070395
20
-73.9002126
11
327.0097487
21
-71.5703201
0
LINE
8
0
10
327.0097487
20
-71.5703201
11
324.6602773
21
-89.4163276
0
LINE
8
0
10
327.0750119
20
-71.0745977
11
344.7723027
21
-73.4044902
0
LINE
8
0
10
344.7723027
20
-73.4044902
11
347.1217741
21
-55.5584827
0
LINE
8
0
10
347.1217741
20
-55.5584827
11
329.4244833
21
-53.2285902
0
LINE
8
0
10
329.4244833
20
-53.2285902
11
327.0750119
21
-71.0745977
0
LINE
8
0
10
304.1754882
20
-96.0543484
11
322.008499
21
-96.8329544
0
LINE
8
0
10
322.008499
20
-96.8329544
11
322.793648
21
-78.8500864
0
LINE
8
0
10
322.793648
20
-78.8500864
11
304.9606372
21
-78.0714804
0
LINE
8
0
10
304.9606372
20
-78.0714804
11
304.1754882
21
-96.0543484
0
LINE
8
0
10
304.9824469
20
-77.5719563
11
322.8154577
21
-78.3505623
0
LINE
8
0
10
322.8154577
20
-78.3505623
11
323.6006067
21
-60.3676943
0
LINE
8
0
10
323.6006067
20
-60.3676943
11
305.7675959
21
-59.5890883
0
LINE
8
0
10
305.7675959
20
-59.5890883
11
304.9824469
21
-77.5719563
0
LINE
8
0
10
305.7894056
20
-59.0895642
11
323.6224164
21
-59.8681702
0
LINE
8
0
10
323.6224164
20
-59.8681702
11
324.4075654
21
-41.8853022
0
LINE
8
0
10
324.4075654
20
-41.8853022
11
306.5745546
21
-41.1066962
0
LINE
8
0
10
306.5745546
20
-41.1066962
11
305.7894056
21
-59.0895642
0
LINE
8
0
10
284.7094618
20
-92.582685
11
302.5594618
21
-92.582685
0
LINE
8
0
10
302.5594618
20
-92.582685
11
302.5594618
21
-74.582685
0
LINE
8
0
10
302.5594618
20
-74.582685
11
284.7094618
21
-74.582685
0
LINE
8
0
10
284.7094618
20
-74.582685
11
284.7094618
21
-92.582685
0
LINE
8
0
10
284.7094618
20
-74.082685
11
302.5594618
21
-74.082685
0
LINE
8
0
10
302.5594618
20
-74.082685
11
302.5594618
21
-56.082685
0
LINE
8
0
10
302.5594618
20
-56.082685
11
284.7094618
21
-56.082685
0
LINE
8
0
10
284.7094618
20
-56.082685
11
284.7094618
21
-74.082685
0
LINE
8
0
10
284.7094618
20
-55.582685
11
302.5594618
21
-55.582685
0
LINE
8
0
10
302.5594618
20
-55.582685
11
302.5594618
21
-37.582685
0
LINE
8
0
10
302.5594618
20
-37.582685
11
284.7094618
21
-37.582685
0
LINE
8
0
10
284.7094618
20
-37.582685
11
284.7094618
21
-55.582685
0
LINE
8
0
10
265.7094618
20
-94.582685
11
283.5594618
21
-94.582685
0
LINE
8
0
10
283.5594618
20
-94.582685
11
283.5594618
21
-76.582685
0
LINE
8
0
10
283.5594618
20
-76.582685
11
265.7094618
21
-76.582685
0
LINE
8
0
10
265.7094618
20
-76.582685
11
265.7094618
21
-94.582685
0
LINE
8
0
10
265.7094618
20
-76.082685
11
283.5594618
21
-76.082685
0
LINE
8
0
10
283.5594618
20
-76.082685
11
283.5594618
21
-58.082685
0
LINE
8
0
10
283.5594618
20
-58.082685
11
265.7094618
21
-58.082685
0
LINE
8
0
10
265.7094618
20
-58.082685
11
265.7094618
21
-76.082685
0
LINE
8
0
10
265.7094618
20
-57.582685
11
283.5594618
21
-57.582685
0
LINE
8
0
10
283.5594618
20
-57.582685
11
283.5594618
21
-39.582685
0
LINE
8
0
10
283.5594618
20
-39.582685
11
265.7094618
21
-39.582685
0
LINE
8
0
10
265.7094618
20
-39.582685
11
265.7094618
21
-57.582685
0
LINE
8
0
10
247.2094619
20
-96.5826851
11
265.0594619
21
-96.5826851
0
LINE
8
0
10
265.0594619
20
-96.5826851
11
265.0594619
21
-78.5826851
0
LINE
8
0
10
265.0594619
20
-78.5826851
11
247.2094619
21
-78.5826851
0
LINE
8
0
10
247.2094619
20
-78.5826851
11
247.2094619
21
-96.5826851
0
LINE
8
0
10
247.2094619
20
-78.0826851
11
265.0594619
21
-78.0826851
0
LINE
8
0
10
265.0594619
20
-78.0826851
11
265.0594619
21
-60.0826851
0
LINE
8
0
10
265.0594619
20
-60.0826851
11
247.2094619
21
-60.0826851
0
LINE
8
0
10
247.2094619
20
-60.0826851
11
247.2094619
21
-78.0826851
0
LINE
8
0
10
247.2094619
20
-59.5826851
11
265.0594619
21
-59.5826851
0
LINE
8
0
10
265.0594619
20
-59.5826851
11
265.0594619
21
-41.5826851
0
LINE
8
0
10
265.0594619
20
-41.5826851
11
247.2094619
21
-41.5826851
0
LINE
8
0
10
247.2094619
20
-41.5826851
11
247.2094619
21
-59.5826851
0
LINE
8
0
10
172.0036088
20
-120.2126794
11
189.3419774
21
-124.8584813
0
LINE
8
0
10
189.3419774
20
-124.8584813
11
194.0913068
21
-107.1337424
0
LINE
8
0
10
194.0913068
20
-107.1337424
11
176.7529382
21
-102.4879405
0
LINE
8
0
10
176.7529382
20
-102.4879405
11
172.0036088
21
-120.2126794
0
LINE
8
0
10
189.0009052
20
-129.0880029
11
206.3392738
21
-133.7338048
0
LINE
8
0
10
206.3392738
20
-133.7338048
11
211.0886032
21
-116.0090659
0
LINE
8
0
10
211.0886032
20
-116.0090659
11
193.7502346
21
-111.363264
0
LINE
8
0
10
193.7502346
20
-111.363264
11
189.0009052
21
-129.0880029
0
LINE
8
0
10
153.896484
20
-112.3514511
11
168.927414
21
-117.3807299
0
LINE
8
0
10
168.927414
20
-117.3807299
11
174.2581322
21
-101.4488925
0
LINE
8
0
10
174.2581322
20
-101.4488925
11
159.2272022
21
-96.4196137
0
LINE
8
0
10
159.2272022
20
-96.4196137
11
153.896484
21
-112.3514511
0
ENDSEC
0
EOF