0
SECTION
2
HEADER
9
$INSUNITS
70
4
0
ENDSEC
0
SECTION
2
TABLES
0
TABLE
2
LTYPE
0
LTYPE
72
65
70
64
2
CONTINUOUS
3
______
73
0
40
0
0
ENDTAB
0
TABLE
2
LAYER
0
ENDTAB
0
ENDSEC
0
SECTION
2
ENTITIES
0
LINE
8
0
10
93.9735693
20
-107.8537974
11
107.8537974
21
-106.0264307
0
LINE
8
0
10
107.8537974
20
-106.0264307
11
106.0264307
21
-92.1462026
0
LINE
8
0
10
106.0264307
20
-92.1462026
11
92.1462026
21
-93.9735693
0
LINE
8
0
10
92.1462026
20
-93.9735693
11
93.9735693
21
-107.8537974
0
LINE
8
0
10
91.5588347
20
-89.5120675
11
105.4390628
21
-87.6847008
0
LINE
8
0
10
105.4390628
20
-87.6847008
11
103.6116961
21
-73.8044727
0
LINE
8
0
10
103.6116961
20
-73.8044727
11
89.731468
21
-75.6318394
0
LINE
8
0
10
89.731468
20
-75.6318394
11
91.5588347
21
-89.5120675
0
LINE
8
0
10
89.1441001
20
-71.1703376
11
103.0243282
21
-69.3429709
0
LINE
8
0
10
103.0243282
20
-69.3429709
11
101.1969615
21
-55.4627428
0
LINE
8
0
10
101.1969615
20
-55.4627428
11
87.3167334
21
-57.2901095
0
LINE
8
0
10
87.3167334
20
-57.2901095
11
89.1441001
21
-71.1703376
0
LINE
8
0
10
112.0963539
20
-94.7508907
11
126.083029
21
-94.1402192
0
LINE
8
0
10
126.083029
20
-94.1402192
11
125.4723575
21
-80.1535441
0
LINE
8
0
10
125.4723575
20
-80.1535441
11
111.4856824
21
-80.7642156
0
LINE
8
0
10
111.4856824
20
-80.7642156
11
112.0963539
21
-94.7508907
0
LINE
8
0
10
111.2893952
20
-76.2684986
11
125.2760703
21
-75.6578271
0
LINE
8
0
10
125.2760703
20
-75.6578271
11
124.6653988
21
-61.671152
0
LINE
8
0
10
124.6653988
20
-61.671152
11
110.6787237
21
-62.2818235
0
LINE
8
0
10
110.6787237
20
-62.2818235
11
111.2893952
21
-76.2684986
0
LINE
8
0
10
110.4824365
20
-57.7861065
11
124.4691116
21
-57.175435
0
LINE
8
0
10
124.4691116
20
-57.175435
11
123.8584401
21
-43.1887599
0
LINE
8
0
10
123.8584401
20
-43.1887599
11
109.871765
21
-43.7994314
0
LINE
8
0
10
109.871765
20
-43.7994314
11
110.4824365
21
-57.7861065
0
LINE
8
0
10
131.634462
20
-90.582685
11
145.634462
21
-90.582685
0
LINE
8
0
10
145.634462
20
-90.582685
11
145.634462
21
-76.582685
0
LINE
8
0
10
145.634462
20
-76.582685
11
131.634462
21
-76.582685
0
LINE
8
0
10
131.634462
20
-76.582685
11
131.634462
21
-90.582685
0
LINE
8
0
10
131.634462
20
-72.082685
11
145.634462
21
-72.082685
0
LINE
8
0
10
145.634462
20
-72.082685
11
145.634462
21
-58.082685
0
LINE
8
0
10
145.634462
20
-58.082685
11
131.634462
21
-58.082685
0
LINE
8
0
10
131.634462
20
-58.082685
11
131.634462
21
-72.082685
0
LINE
8
0
10
131.634462
20
-53.582685
11
145.634462
21
-53.582685
0
LINE
8
0
10
145.634462
20
-53.582685
11
145.634462
21
-39.582685
0
LINE
8
0
10
145.634462
20
-39.582685
11
131.634462
21
-39.582685
0
LINE
8
0
10
131.634462
20
-39.582685
11
131.634462
21
-53.582685
0
LINE
8
0
10
150.634462
20
-92.582685
11
164.634462
21
-92.582685
0
LINE
8
0
10
164.634462
20
-92.582685
11
164.634462
21
-78.582685
0
LINE
8
0
10
164.634462
20
-78.582685
11
150.634462
21
-78.582685
0
LINE
8
0
10
150.634462
20
-78.582685
11
150.634462
21
-92.582685
0
LINE
8
0
10
150.634462
20
-74.082685
11
164.634462
21
-74.082685
0
LINE
8
0
10
164.634462
20
-74.082685
11
164.634462
21
-60.082685
0
LINE
8
0
10
164.634462
20
-60.082685
11
150.634462
21
-60.082685
0
LINE
8
0
10
150.634462
20
-60.082685
11
150.634462
21
-74.082685
0
LINE
8
0
10
150.634462
20
-55.582685
11
164.634462
21
-55.582685
0
LINE
8
0
10
164.634462
20
-55.582685
11
164.634462
21
-41.582685
0
LINE
8
0
10
164.634462
20
-41.582685
11
150.634462
21
-41.582685
0
LINE
8
0
10
150.634462
20
-41.582685
11
150.634462
21
-55.582685
0
LINE
8
0
10
169.1344619
20
-94.5826851
11
183.1344619
21
-94.5826851
0
LINE
8
0
10
183.1344619
20
-94.5826851
11
183.1344619
21
-80.5826851
0
LINE
8
0
10
183.1344619
20
-80.5826851
11
169.1344619
21
-80.5826851
0
LINE
8
0
10
169.1344619
20
-80.5826851
11
169.1344619
21
-94.5826851
0
LINE
8
0
10
174.4742437
20
-118.6229584
11
187.9972053
21
-122.246425
0
LINE
8
0
10
187.9972053
20
-122.246425
11
191.6206719
21
-108.7234634
0
LINE
8
0
10
191.6206719
20
-108.7234634
11
178.0977103
21
-105.0999968
0
LINE
8
0
10
178.0977103
20
-105.0999968
11
174.4742437
21
-118.6229584
0
LINE
8
0
10
191.4715401
20
-127.4982819
11
204.9945017
21
-131.1217485
0
LINE
8
0
10
204.9945017
20
-131.1217485
11
208.6179683
21
-117.5987869
0
LINE
8
0
10
208.6179683
20
-117.5987869
11
195.0950067
21
-113.9753203
0
LINE
8
0
10
195.0950067
20
-113.9753203
11
191.4715401
21
-127.4982819
0
LINE
8
0
10
168.5344619
20
-76.6826851
11
183.7344619
21
-76.6826851
0
LINE
8
0
10
183.7344619
20
-76.6826851
11
183.7344619
21
-61.4826851
0
LINE
8
0
10
183.7344619
20
-61.4826851
11
168.5344619
21
-61.4826851
0
LINE
8
0
10
168.5344619
20
-61.4826851
11
168.5344619
21
-76.6826851
0
LINE
8
0
10
168.5344619
20
-58.1826851
11
183.7344619
21
-58.1826851
0
LINE
8
0
10
183.7344619
20
-58.1826851
11
183.7344619
21
-42.9826851
0
LINE
8
0
10
183.7344619
20
-42.9826851
11
168.5344619
21
-42.9826851
0
LINE
8
0
10
168.5344619
20
-42.9826851
11
168.5344619
21
-58.1826851
0
LINE
8
0
10
155.3444727
20
-111.2542029
11
168.4313392
21
-115.6330072
0
LINE
8
0
10
168.4313392
20
-115.6330072
11
172.8101435
21
-102.5461407
0
LINE
8
0
10
172.8101435
20
-102.5461407
11
159.723277
21
-98.1673364
0
LINE
8
0
10
159.723277
20
-98.1673364
11
155.3444727
21
-111.2542029
0
ENDSEC
0
EOF